<svg fill="white" xmlns="http://www.w3.org/2000/svg" xmlns:xlink="http://www.w3.org/1999/xlink" version="1.1" x="0px" y="0px" viewBox="0 0 100 100"  xml:space="preserve"><g><path d="M22.625,13.645c0,3.886,3.162,7.048,7.048,7.048h3.974l-0.864,4.967c-1.938,0.222-3.454,1.854-3.454,3.851   c0,2.148,1.748,3.896,3.896,3.896h0.423l-0.689,3.96c-1.927,0.133-3.49,1.66-3.619,3.611c-0.001,0.008-0.003,0.014-0.004,0.022   c-0.005,0.079-0.007,0.158-0.007,0.237c0,2.044,1.587,3.706,3.59,3.865l0.932,6.584c-1.721,1.133-2.862,3.08-2.862,5.291v2.312   v2.719c0,1.438,0.744,2.701,1.864,3.437v5.47c-2.293,1.5-3.708,4.056-3.708,6.82c0,1.134,0.251,2.221,0.689,3.233   c-4.37,2.147-7.205,6.593-7.205,11.565V93.5c0,0.829,0.671,1.5,1.5,1.5h26.387c0.829,0,1.5-0.671,1.5-1.5v-0.968   c0-4.972-2.835-9.418-7.205-11.565c0.438-1.012,0.689-2.1,0.689-3.233c0-2.763-1.415-5.319-3.708-6.82v-5.47   c1.12-0.736,1.864-1.999,1.864-3.437v-2.719v-2.312c0-0.602-0.09-1.182-0.247-1.733l2.122-2.589   c0.168,0.062,0.343,0.101,0.519,0.101c0.384,0,0.768-0.146,1.061-0.439l0.904-0.904c0.281-0.281,0.439-0.663,0.439-1.061   c0-0.282-0.083-0.554-0.229-0.789l4.102-4.103c0.586-0.586,0.586-1.536,0-2.121c-0.586-0.586-1.536-0.586-2.121,0l-4.12,4.121   c-0.578-0.355-1.331-0.308-1.832,0.192l-0.904,0.904c-0.281,0.281-0.439,0.663-0.439,1.061c0,0.183,0.037,0.361,0.101,0.529   l-2.039,1.664c-0.059-0.042-0.118-0.084-0.178-0.124l0.932-6.584c2.003-0.159,3.59-1.821,3.59-3.865   c0-2.057-1.607-3.729-3.63-3.869l-0.689-3.961h0.423c2.148,0,3.896-1.748,3.896-3.896c0-1.997-1.516-3.628-3.454-3.851   l-0.864-4.967h3.974c3.886,0,7.048-3.162,7.048-7.048c0-0.829-0.671-1.5-1.5-1.5h-7.665c0.681-1.04,1.081-2.28,1.081-3.613V6.5   c0-0.829-0.671-1.5-1.5-1.5H32.208c-0.829,0-1.5,0.671-1.5,1.5v2.032c0,1.333,0.4,2.574,1.081,3.613h-7.665   C23.296,12.145,22.625,12.816,22.625,13.645z M40.655,56.977v0.812h-2.241c-0.829,0-1.5,0.671-1.5,1.5s0.671,1.5,1.5,1.5h2.241   v1.219c0,0.614-0.5,1.114-1.114,1.114h-4.439c-0.614,0-1.114-0.5-1.114-1.114v-1.219h0.559c0.829,0,1.5-0.671,1.5-1.5   s-0.671-1.5-1.5-1.5h-0.559v-0.812c0-1.838,1.496-3.333,3.333-3.333S40.655,55.139,40.655,56.977z M38.791,70.424h-2.938v-4.303   h2.938V70.424z M47.614,87.461h-1.339c-0.829,0-1.5,0.671-1.5,1.5s0.671,1.5,1.5,1.5h2.522c0.107,0.502,0.177,1.016,0.205,1.539   H25.643c0.028-0.523,0.098-1.037,0.205-1.539h16.518c0.829,0,1.5-0.671,1.5-1.5s-0.671-1.5-1.5-1.5H27.031   c1.156-1.936,2.964-3.462,5.193-4.252h10.197C44.649,83.999,46.458,85.525,47.614,87.461z M41.865,80.208H32.78   c-0.413-0.752-0.635-1.593-0.635-2.475c0-1.746,0.893-3.361,2.341-4.31h5.674c1.448,0.95,2.341,2.564,2.341,4.31   C42.5,78.615,42.277,79.456,41.865,80.208z M37.322,50.644c-0.197,0-0.392,0.012-0.585,0.03l-0.785-5.54h2.738l-0.785,5.54   C37.714,50.655,37.519,50.644,37.322,50.644z M38.638,37.353c-0.774,0.059-1.386,0.699-1.386,1.489c0,0.829,0.671,1.5,1.5,1.5   h2.668c0.494,0,0.896,0.402,0.896,0.896c0,0.494-0.402,0.896-0.896,0.896h-8.196c-0.493,0-0.895-0.401-0.894-0.95   c0-0.001,0-0.001,0-0.002c0.028-0.471,0.42-0.839,0.894-0.839h1.912c0.829,0,1.5-0.671,1.5-1.5c0-0.522-0.267-0.981-0.671-1.249   l0.728-4.185h1.258L38.638,37.353z M38.918,26.248c-0.175,0.245-0.28,0.543-0.28,0.867c0,0.829,0.671,1.5,1.5,1.5h1.282   c0.494,0,0.896,0.402,0.896,0.896c0,0.494-0.402,0.896-0.896,0.896h-8.196c-0.494,0-0.896-0.402-0.896-0.896   c0-0.494,0.402-0.896,0.896-0.896h3.425c0.829,0,1.5-0.671,1.5-1.5s-0.671-1.5-1.5-1.5h-0.813l0.856-4.922h1.259L38.918,26.248z    M33.708,8.532V8h7.227v0.532c0,1.992-1.621,3.613-3.613,3.613C35.33,12.145,33.708,10.524,33.708,8.532z M48.731,15.145   c-0.597,1.492-2.058,2.548-3.76,2.548h-9.582c-0.003,0-0.006,0-0.009,0h-5.707c-1.702,0-3.163-1.056-3.76-2.548H48.731z"></path><path d="M58.355,37.856c-1.72,0-3.338,0.67-4.554,1.887l-0.741,0.741c-0.586,0.585-0.586,1.536,0,2.121   c0.586,0.586,1.535,0.586,2.121,0l0.741-0.741c0.65-0.65,1.514-1.008,2.433-1.008c1.897,0,3.44,1.543,3.44,3.44v5.078   c0,0.829,0.671,1.5,1.5,1.5s1.5-0.671,1.5-1.5v-5.078C64.796,40.746,61.907,37.856,58.355,37.856z"></path><path d="M63.296,74.625c0.829,0,1.5-0.671,1.5-1.5v-19.5c0-0.829-0.671-1.5-1.5-1.5s-1.5,0.671-1.5,1.5v19.5   C61.796,73.954,62.467,74.625,63.296,74.625z"></path><path d="M61.796,80.639c0,3.469,2.822,6.292,6.292,6.292c3.469,0,6.291-2.822,6.291-6.292V65.5c0-0.829-0.671-1.5-1.5-1.5   s-1.5,0.671-1.5,1.5v15.139c0,1.815-1.477,3.292-3.291,3.292c-1.815,0-3.292-1.477-3.292-3.292V77c0-0.829-0.671-1.5-1.5-1.5   s-1.5,0.671-1.5,1.5V80.639z"></path><path d="M74.379,12.43V6.5c0-0.829-0.671-1.5-1.5-1.5s-1.5,0.671-1.5,1.5v5.986c-1.335,0.6-2.271,1.936-2.271,3.492v13.599   c0,1.556,0.936,2.892,2.271,3.492V61.75c0,0.829,0.671,1.5,1.5,1.5s1.5-0.671,1.5-1.5V33.124c1.402-0.57,2.395-1.943,2.395-3.547   V15.978C76.774,14.373,75.781,13.001,74.379,12.43z M73.774,20.201v9.376c0,0.459-0.374,0.833-0.833,0.833   c-0.459,0-0.833-0.374-0.833-0.833v-2.376c0.652-0.163,1.137-0.748,1.137-1.451s-0.485-1.288-1.137-1.451v-8.322   c0-0.459,0.374-0.833,0.833-0.833c0.459,0,0.833,0.374,0.833,0.833v1.322c-0.652,0.163-1.137,0.748-1.137,1.451   S73.122,20.038,73.774,20.201z"></path><path d="M17.8,14.979c-0.643-0.522-1.586-0.427-2.11,0.216c-0.229,0.281-0.618,0.561-1.03,0.856c-1.058,0.759-2.507,1.8-2.507,3.92   c0,1.888,1.245,2.932,1.654,3.275c0.281,0.235,0.623,0.351,0.963,0.351c0.428,0,0.854-0.182,1.15-0.536   c0.532-0.635,0.449-1.581-0.186-2.113c-0.489-0.41-0.582-0.659-0.582-0.976c0-0.505,0.283-0.785,1.257-1.483   c0.527-0.379,1.125-0.808,1.606-1.399C18.539,16.447,18.443,15.502,17.8,14.979z"></path><path d="M15.754,28.187c0.286,0.257,0.644,0.383,1,0.383c0.412,0,0.822-0.168,1.118-0.5c0.693-0.774,1.045-1.679,1.045-2.691   c0-0.478-0.079-0.937-0.235-1.364c-0.284-0.779-1.146-1.181-1.923-0.896c-0.778,0.283-1.179,1.145-0.896,1.923   c0.036,0.099,0.053,0.208,0.053,0.337c0,0.275-0.076,0.463-0.279,0.69C15.084,26.686,15.137,27.634,15.754,28.187z"></path><path d="M20.54,33.605l0.144-3.288c0.022-0.503-0.209-0.983-0.617-1.279c-0.408-0.297-0.937-0.369-1.407-0.191L15.576,30   l-3.083-1.152c-0.471-0.176-0.999-0.104-1.407,0.191c-0.407,0.296-0.639,0.776-0.617,1.279l0.144,3.288l-2.049,2.577   c-0.313,0.394-0.408,0.918-0.253,1.397c0.156,0.479,0.541,0.848,1.026,0.982l3.172,0.879l1.817,2.745   c0.278,0.42,0.748,0.672,1.251,0.672s0.973-0.252,1.251-0.672l1.817-2.745l3.172-0.879c0.485-0.134,0.87-0.503,1.026-0.982   c0.155-0.479,0.061-1.003-0.253-1.397L20.54,33.605z M17.302,36.7c-0.349,0.097-0.65,0.316-0.85,0.617l-0.875,1.323l-0.875-1.323   c-0.2-0.301-0.501-0.521-0.85-0.617l-1.528-0.424l0.987-1.242c0.225-0.283,0.34-0.638,0.325-0.999l-0.069-1.584l1.486,0.555   c0.339,0.127,0.712,0.127,1.051,0l1.486-0.555l-0.069,1.584c-0.016,0.361,0.1,0.716,0.325,0.999l0.987,1.242L17.302,36.7z"></path><path d="M83.036,87.802c0.827,0,1.499-0.67,1.5-1.498c0-0.192,0.588-0.542,1.017-0.798c0.987-0.588,2.479-1.476,2.481-3.371   c0.003-1.895-1.485-2.789-2.47-3.38c-0.428-0.257-1.015-0.609-1.014-0.803c0-0.042,0-0.087,0.151-0.223   c0.616-0.554,0.667-1.502,0.112-2.118c-0.554-0.617-1.502-0.666-2.118-0.112c-0.758,0.682-1.144,1.506-1.146,2.449   c-0.003,1.895,1.485,2.789,2.47,3.38c0.428,0.257,1.015,0.609,1.014,0.803c0,0.192-0.588,0.542-1.017,0.798   c-0.987,0.588-2.479,1.476-2.481,3.371c-0.001,0.829,0.669,1.501,1.498,1.502C83.034,87.802,83.035,87.802,83.036,87.802z"></path><path d="M87.639,72.218c-0.41-0.719-1.318-0.936-2.039-0.525c-0.72,0.41-0.963,1.362-0.553,2.082c0,0.013-0.001,0.031-0.004,0.044   c-0.222,0.798,0.246,1.625,1.044,1.847c0.134,0.037,0.27,0.055,0.402,0.055c0.657,0,1.26-0.435,1.444-1.099   c0.076-0.272,0.114-0.557,0.114-0.845C88.048,73.219,87.911,72.694,87.639,72.218z"></path><path d="M78.004,62.759c-0.155,0.479-0.061,1.003,0.253,1.397l1.876,2.357l-0.132,3.01c-0.022,0.502,0.209,0.983,0.617,1.279   c0.26,0.189,0.569,0.287,0.882,0.287c0.177,0,0.355-0.031,0.525-0.095l2.822-1.055l2.822,1.055c0.471,0.177,1,0.105,1.407-0.191   c0.407-0.296,0.639-0.776,0.617-1.279l-0.131-3.01l1.875-2.358c0.313-0.394,0.408-0.918,0.253-1.397   c-0.156-0.479-0.541-0.847-1.026-0.981l-2.903-0.805l-1.663-2.512c-0.556-0.84-1.946-0.84-2.502,0l-1.663,2.512l-2.903,0.805   C78.545,61.911,78.16,62.28,78.004,62.759z M83.275,63.713c0.349-0.097,0.65-0.316,0.85-0.618l0.721-1.09l0.721,1.09   c0.2,0.302,0.501,0.521,0.85,0.618l1.26,0.349l-0.813,1.023c-0.225,0.283-0.34,0.638-0.325,0.999l0.057,1.306l-1.225-0.458   c-0.169-0.063-0.348-0.095-0.525-0.095s-0.356,0.032-0.525,0.095l-1.224,0.458l0.057-1.306c0.016-0.361-0.1-0.716-0.325-1   l-0.814-1.023L83.275,63.713z"></path></g></svg>